<?xml version="1.0" encoding="utf-8"?>
<!-- Generator: Adobe Illustrator 26.5.0, SVG Export Plug-In . SVG Version: 6.00 Build 0)  -->
<svg version="1.1" id="_图层_1" xmlns="http://www.w3.org/2000/svg" xmlns:xlink="http://www.w3.org/1999/xlink" x="0px" y="0px"
	 viewBox="0 0 120 32" style="enable-background:new 0 0 120 32;" xml:space="preserve">
<style type="text/css">
	.st0{fill:#EA5E1B;}
	.st1{fill:#231815;}
</style>
<g>
	<path class="st0" d="M9.1,8.8L5.5,6.8C5.4,6.7,5.1,6.8,5.1,7c0.2,2.7,1,7.7,4.3,13.4s7.2,8.9,9.4,10.4c0.2,0.1,0.4,0,0.4-0.2v-4.1
		c0,0,0.2-6.5-2.2-10.5C14.8,11.9,9.1,8.8,9.1,8.8"/>
	<path class="st0" d="M34.4,4.5c0.2-0.1,0.2-0.4,0-0.5C32,2.9,27.2,1.1,20.6,1.1S9.3,2.9,6.9,4.1c-0.2,0.1-0.2,0.4,0,0.5l3.6,2.1
		c0,0,5.5,3.4,10.2,3.4s10.2-3.4,10.2-3.4L34.4,4.5z"/>
	<path class="st0" d="M35.7,6.8l-3.6,2.1c0,0-5.7,3.1-8,7.1s-2.2,10.5-2.2,10.5v4.1c0,0.2,0.2,0.3,0.4,0.2c2.2-1.5,6.1-4.7,9.4-10.4
		c3.3-5.7,4.1-10.7,4.3-13.4C36.1,6.8,35.9,6.7,35.7,6.8"/>
	<path class="st1" d="M51.5,8.2l-3.2,7.2l-3.2-7.2h-4.7l5.5,9.8c0.3,0.5,0.4,1,0.4,1.6v4.3h4.1v-4.2c0-0.5,0.1-1.1,0.4-1.5l5.3-9.8
		L51.5,8.2L51.5,8.2z"/>
	<path class="st1" d="M77.3,8.2H71v15.6h6.3c5,0,7.2-2,7.2-6.4v-2.9C84.5,10.2,82.3,8.3,77.3,8.2 M80.3,17.4c0,2.2-0.9,3.1-3.1,3.1
		h-2.2v-9.1h2.2c2.2,0,3.1,0.9,3.1,3.1V17.4z"/>
	<polygon class="st1" points="90.9,17.7 96.8,17.7 96.8,14.5 90.9,14.5 90.9,11.4 97.6,11.4 97.6,8.2 86.8,8.2 86.8,23.8 97.8,23.8 
		97.8,20.6 90.9,20.6 	"/>
	<path class="st1" d="M59.5,8.2l-5.6,15.6h4.3l0.7-2.3h5.5l0.7,2.3h4.3L63.7,8.2H59.5L59.5,8.2z M59.8,18.4l1.8-6.4l1.8,6.4H59.8z"
		/>
	<path class="st1" d="M109.3,8.2H105l-5.6,15.6h4.3l0.7-2.3h5.5l0.7,2.3h4.3L109.3,8.2L109.3,8.2z M105.3,18.4l1.8-6.4l1.8,6.4
		H105.3L105.3,18.4z"/>
</g>
</svg>
